<?xml version="1.0" standalone="no"?>
<!DOCTYPE svg PUBLIC "-//W3C//DTD SVG 20010904//EN"
 "http://www.w3.org/TR/2001/REC-SVG-20010904/DTD/svg10.dtd">
<svg version="1.0" xmlns="http://www.w3.org/2000/svg"
 width="512.000000pt" height="512.000000pt" viewBox="0 0 512.000000 512.000000"
 preserveAspectRatio="xMidYMid meet">

<g transform="translate(0.000000,512.000000) scale(0.100000,-0.100000)"
fill="#000000" stroke="none">
<path d="M821 5103 c-129 -46 -197 -214 -135 -334 20 -40 38 -9 -188 -320
l-178 -246 -55 5 c-97 8 -192 -44 -238 -132 -30 -58 -30 -165 0 -222 30 -57
95 -110 153 -125 l48 -12 146 -557 146 -557 -35 -37 c-48 -52 -67 -99 -67
-174 l-1 -62 -61 -63 c-94 -96 -162 -192 -221 -312 -99 -201 -129 -332 -129
-550 0 -161 14 -257 60 -393 142 -425 519 -750 958 -827 112 -19 318 -19 427
0 163 28 331 97 480 197 102 68 251 211 314 302 21 31 44 56 51 56 7 0 33 -63
62 -149 l50 -149 -24 -23 c-41 -39 -68 -107 -68 -174 0 -166 167 -285 323
-230 59 20 86 43 127 103 l35 52 423 0 424 0 12 -30 c19 -46 102 -115 155
-130 120 -34 257 36 296 150 9 23 20 32 52 40 234 60 427 170 592 335 195 196
318 444 354 718 40 291 -46 625 -221 865 -26 37 -48 69 -48 73 0 4 7 23 15 42
32 76 9 185 -53 250 -37 39 -91 66 -152 75 l-51 7 -148 320 -148 319 30 48
c34 54 48 115 40 174 l-5 41 176 137 c96 75 181 139 189 142 7 2 30 -2 50 -11
78 -32 180 -15 245 41 63 54 86 105 87 190 0 61 -4 77 -30 120 -26 42 -98 103
-136 116 -8 3 -9 64 -4 220 8 211 8 216 30 226 75 34 145 140 145 218 0 138
-116 254 -254 254 -92 0 -205 -88 -229 -177 -10 -37 -15 -43 -51 -51 -23 -6
-253 -58 -512 -117 l-471 -107 -46 45 c-75 76 -186 96 -280 51 l-34 -16 -70
41 c-88 52 -220 106 -331 134 -75 19 -113 22 -282 21 -172 0 -205 -2 -280 -23
-127 -35 -129 -35 -148 -18 -32 29 -91 47 -154 47 -51 0 -73 -6 -115 -30 -28
-16 -61 -43 -73 -60 -13 -18 -30 -30 -44 -30 -22 0 -526 75 -573 85 -14 3 -26
18 -33 41 -28 85 -140 164 -230 163 -25 0 -65 -8 -89 -16z m144 -178 c57 -56
0 -149 -79 -129 -55 13 -75 88 -34 131 30 32 81 31 113 -2z m3962 3 c27 -25
31 -73 8 -105 -32 -46 -113 -36 -135 16 -33 81 64 149 127 89z m-2908 -153
c72 -37 45 -145 -36 -145 -39 0 -83 37 -83 69 0 31 20 68 44 79 29 15 43 14
75 -3z m702 0 c112 -17 266 -69 357 -122 l66 -38 -3 -61 c-6 -148 101 -255
256 -258 l67 -1 38 -70 c95 -176 133 -345 125 -555 -10 -228 -74 -412 -207
-593 l-30 -41 0 81 c0 150 -29 238 -102 313 -52 54 -106 78 -310 135 l-168 48
0 52 c0 44 4 55 31 81 49 46 86 105 109 174 19 57 21 82 18 230 -3 162 -4 166
-35 232 -41 88 -113 160 -201 201 -62 30 -75 32 -172 32 -97 0 -110 -2 -172
-32 -88 -41 -160 -113 -201 -201 -31 -66 -32 -70 -35 -232 -3 -148 -1 -173 18
-230 23 -69 60 -128 109 -174 27 -26 31 -37 31 -81 l0 -52 -167 -48 c-205 -57
-259 -81 -311 -135 -73 -74 -102 -162 -102 -309 l-1 -76 -25 30 c-44 53 -110
172 -143 260 l-32 84 37 33 c72 63 100 166 72 262 -12 39 -80 118 -121 141
-17 9 -18 14 -4 80 38 179 132 363 253 493 l70 76 40 -19 c49 -23 131 -31 177
-16 94 31 164 118 174 215 l6 55 91 20 c153 34 251 38 397 16z m-1273 -69
c156 -24 286 -47 289 -50 3 -3 -27 -40 -67 -83 -137 -148 -241 -328 -296 -513
-17 -59 -24 -71 -30 -55 -4 11 -67 168 -140 350 l-132 329 27 33 c14 18 35 33
46 33 11 0 147 -20 303 -44z m3242 0 c17 -18 43 -39 60 -46 l30 -12 -1 -227 0
-226 -45 -32 c-24 -18 -48 -33 -53 -33 -10 0 -982 378 -988 384 -3 2 28 12 69
21 40 9 255 58 478 109 223 52 409 94 413 95 4 1 21 -14 37 -33z m-3778 -88
c8 -7 86 -190 172 -407 l157 -394 -20 -20 -20 -20 -308 88 c-169 48 -329 94
-355 102 -38 11 -48 18 -48 36 0 12 -9 40 -19 62 l-18 41 191 262 c178 245
192 262 221 262 17 0 38 -6 47 -12z m2518 -8 c25 -13 41 -65 30 -94 -5 -13
-19 -31 -32 -40 -59 -41 -125 6 -119 86 3 44 75 73 121 48z m-761 -180 c50
-25 90 -67 115 -120 18 -39 21 -64 21 -185 0 -136 -1 -142 -29 -193 -98 -175
-334 -175 -432 0 -28 51 -29 57 -29 193 0 121 3 146 21 185 60 129 210 183
333 120z m1461 -265 c528 -205 491 -186 505 -260 3 -16 -36 -50 -183 -164
l-186 -144 -45 17 c-138 49 -286 -22 -326 -156 -19 -64 -19 -82 0 -144 28 -95
107 -160 209 -173 l50 -6 143 -309 c78 -170 141 -311 139 -313 -1 -2 -32 10
-67 26 -687 307 -1512 -104 -1690 -844 -119 -497 82 -1021 502 -1308 l83 -57
-235 1 -234 0 -30 47 c-37 58 -96 100 -155 110 l-45 7 -47 135 c-26 74 -47
143 -47 153 -1 11 14 37 33 59 77 89 70 233 -16 319 l-29 29 10 107 c56 562
-298 1099 -847 1283 -212 71 -513 79 -700 19 -18 -6 -35 -9 -38 -6 -5 5 468
797 477 797 3 0 13 -26 23 -57 105 -332 376 -623 711 -762 244 -102 547 -119
803 -45 391 113 717 426 837 804 100 315 80 625 -58 910 -28 58 -53 109 -55
114 -6 11 -66 33 508 -189z m-3821 -151 c26 -33 27 -64 1 -97 -26 -33 -63 -41
-99 -23 -32 17 -41 34 -41 75 0 68 97 99 139 45z m4621 4 c36 -38 25 -100 -21
-124 -36 -18 -73 -10 -99 23 -26 33 -25 64 1 97 27 34 88 37 119 4z m-4112
-303 c314 -90 342 -100 342 -119 0 -12 11 -45 25 -73 l26 -51 -246 -408 c-227
-380 -265 -437 -279 -423 -3 3 -72 255 -152 561 l-146 555 28 30 c16 17 36 30
44 29 8 -2 169 -47 358 -101z m632 -15 c31 -16 41 -63 22 -101 -31 -61 -110
-59 -140 4 -16 32 -2 80 27 97 21 12 68 13 91 0z m1190 -89 c0 -18 -13 -40
-40 -66 l-40 -39 -40 39 c-27 26 -40 48 -40 66 0 26 0 26 80 26 80 0 80 0 80
-26z m1548 -177 c66 -73 -41 -171 -113 -104 -43 40 -29 107 26 129 32 13 59 5
87 -25z m-1721 -76 l93 -93 95 95 94 94 173 -48 c294 -83 292 -80 296 -347 l4
-186 -71 -47 c-94 -63 -200 -111 -318 -144 -90 -24 -113 -27 -273 -27 -149 1
-187 4 -257 23 -117 32 -230 82 -323 143 l-82 54 4 185 c4 265 1 261 275 340
92 27 175 49 183 49 8 1 56 -41 107 -91z m-1749 -911 c14 -13 22 -32 22 -51
-1 -80 -98 -110 -144 -44 -20 29 -20 57 0 86 31 45 78 49 122 9z m732 6 c315
-63 585 -266 738 -553 97 -181 142 -422 116 -613 -7 -46 -7 -46 -61 -62 -165
-48 -226 -234 -127 -386 17 -26 16 -28 -12 -68 -16 -22 -32 -41 -35 -41 -4 0
-9 57 -11 128 -4 139 -15 174 -80 248 -49 56 -96 80 -230 120 -68 19 -153 44
-190 55 l-68 20 0 53 c0 46 4 56 31 82 48 45 86 105 108 172 30 88 30 320 1
415 -52 167 -216 287 -394 287 -157 0 -300 -92 -369 -237 l-32 -68 0 -190 c0
-185 1 -191 27 -248 15 -31 50 -81 77 -110 48 -50 51 -57 51 -105 0 -29 -1
-52 -3 -52 -18 0 -360 -104 -390 -119 -72 -35 -135 -105 -163 -182 -9 -25 -19
-93 -23 -159 l-6 -115 -52 78 c-69 103 -115 201 -148 317 -36 128 -45 342 -21
473 39 206 131 388 270 534 l61 64 45 -20 c96 -44 222 -15 288 65 33 40 62
116 62 164 0 25 5 28 73 44 158 37 312 40 467 9z m2615 6 c74 -12 204 -54 268
-86 46 -23 47 -24 47 -71 0 -150 151 -263 305 -228 29 6 32 3 82 -71 127 -191
183 -375 183 -598 0 -229 -69 -443 -200 -625 l-40 -55 0 91 c0 183 -62 304
-186 365 -31 14 -373 119 -391 119 -2 0 -3 23 -3 52 0 48 3 55 51 105 27 29
62 79 77 110 26 57 27 63 27 248 l0 190 -32 68 c-134 283 -514 320 -704 67
-61 -81 -79 -155 -79 -326 0 -120 4 -155 21 -206 22 -67 60 -127 108 -172 27
-26 31 -36 31 -82 l0 -53 -67 -20 c-38 -11 -123 -36 -191 -55 -134 -40 -181
-64 -230 -120 -65 -74 -76 -108 -80 -249 -5 -147 -4 -147 -78 -34 -211 319
-231 741 -52 1077 221 415 665 634 1133 559z m613 -89 c35 -33 33 -84 -4 -117
-30 -27 -61 -29 -92 -7 -45 32 -48 99 -5 132 25 19 76 15 101 -8z m-3331 -252
c48 -22 99 -76 120 -127 20 -47 28 -211 14 -286 -15 -80 -55 -142 -115 -179
-134 -84 -316 -14 -361 138 -20 67 -20 237 1 305 43 146 201 215 341 149z
m2630 6 c57 -21 118 -89 137 -155 21 -68 21 -238 1 -305 -43 -145 -207 -216
-343 -148 -93 46 -132 119 -139 264 -9 169 22 259 112 322 66 46 142 53 232
22z m-2657 -824 c0 -17 -14 -39 -40 -65 l-40 -39 -40 39 c-26 25 -40 48 -40
65 0 25 1 25 80 25 79 1 80 0 80 -25z m2640 0 c0 -17 -14 -40 -40 -65 l-40
-39 -40 39 c-26 26 -40 48 -40 65 0 25 1 26 80 25 79 0 80 0 80 -25z m-2813
-252 l93 -93 95 95 94 94 173 -49 c195 -54 212 -61 251 -103 39 -41 46 -82 47
-268 l0 -162 -32 -24 c-203 -151 -492 -228 -743 -198 -179 21 -373 94 -497
185 l-48 35 0 178 c0 165 2 181 23 222 12 25 36 53 54 63 30 17 351 115 383
116 8 1 56 -41 107 -91z m2640 0 l93 -93 95 95 94 94 173 -48 c210 -58 245
-76 276 -136 20 -41 22 -58 22 -221 l0 -177 -50 -36 c-92 -66 -253 -139 -355
-160 -27 -6 -35 -2 -69 40 -99 118 -272 117 -375 -4 l-39 -45 -73 23 c-99 29
-225 89 -300 141 l-61 43 4 185 c4 262 5 263 274 341 93 27 176 49 184 49 8 1
56 -41 107 -91z m-1420 0 c49 -46 12 -138 -55 -138 -33 0 -69 30 -78 64 -6 26
17 81 38 89 31 13 73 6 95 -15z m226 -730 c50 -26 61 -77 26 -122 -29 -37 -89
-37 -118 0 -35 44 -25 94 24 122 26 15 41 15 68 0z m1350 -19 c63 -77 -48
-175 -118 -104 -27 26 -31 51 -14 89 22 49 96 57 132 15z"/>
</g>
</svg>
