<?xml version="1.0" standalone="no"?>
<!DOCTYPE svg PUBLIC "-//W3C//DTD SVG 20010904//EN"
 "http://www.w3.org/TR/2001/REC-SVG-20010904/DTD/svg10.dtd">
<svg version="1.0" xmlns="http://www.w3.org/2000/svg"
 width="512.000000pt" height="512.000000pt" viewBox="0 0 512.000000 512.000000"
 preserveAspectRatio="xMidYMid meet">
<metadata>
Created by potrace 1.14, written by Peter Selinger 2001-2017
</metadata>
<g transform="translate(0.000000,512.000000) scale(0.100000,-0.100000)"
fill="#000000" stroke="none">
<path d="M820 5103 c-97 -41 -154 -126 -155 -228 0 -38 7 -76 19 -102 l18 -42
-58 -81 c-33 -45 -68 -95 -79 -110 -11 -15 -39 -54 -62 -86 -23 -33 -73 -101
-111 -153 l-68 -93 -74 -2 c-62 -1 -83 -6 -122 -29 -84 -49 -127 -127 -124
-223 5 -106 78 -200 176 -225 l48 -12 22 -86 c13 -47 70 -264 127 -481 58
-217 106 -404 109 -415 2 -11 10 -43 19 -70 19 -64 20 -57 -14 -93 -51 -53
-75 -110 -74 -179 l0 -63 -64 -66 c-186 -194 -303 -430 -340 -689 -9 -56 -8
-291 0 -345 14 -90 21 -121 49 -205 105 -315 316 -565 608 -719 238 -125 496
-164 790 -121 136 21 326 100 471 196 95 65 253 215 304 290 47 69 61 83 71
67 5 -7 29 -76 55 -154 l46 -140 -34 -39 c-103 -119 -59 -321 84 -381 119 -51
245 -11 315 101 l25 40 426 0 426 1 12 -27 c14 -36 73 -94 114 -113 123 -59
276 -2 331 124 15 34 25 42 58 51 229 58 426 169 586 328 296 295 422 699 346
1116 -25 136 -109 331 -201 464 -56 82 -57 84 -43 115 23 50 22 128 -2 183
-39 88 -103 136 -198 149 l-51 6 -31 67 c-37 77 -70 150 -184 395 l-82 180 33
55 c18 30 34 69 35 85 0 17 2 38 2 46 1 8 -1 28 -4 45 -6 29 1 35 178 172 101
79 189 143 196 143 7 0 27 -7 45 -16 18 -9 55 -16 84 -15 203 2 316 232 194
393 -18 23 -54 53 -80 66 l-47 25 5 166 c2 91 4 189 5 217 0 48 2 53 30 64 35
14 106 89 122 128 18 45 18 138 0 185 -23 57 -88 120 -144 140 -61 20 -143 16
-194 -11 -55 -28 -112 -96 -125 -149 l-11 -42 -111 -25 c-62 -15 -121 -28
-132 -30 -11 -3 -110 -25 -220 -51 -110 -25 -211 -48 -225 -51 -26 -5 -214
-48 -291 -66 l-46 -11 -44 45 c-27 27 -64 51 -92 61 -57 19 -140 16 -188 -8
l-36 -17 -70 41 c-114 67 -273 126 -398 146 -22 4 -53 9 -70 11 -113 19 -367
-4 -493 -43 -43 -14 -57 -15 -70 -5 -112 82 -277 64 -350 -38 -15 -20 -34 -36
-42 -35 -8 2 -62 10 -120 19 -58 9 -116 19 -130 21 -62 9 -177 27 -200 31 -14
2 -43 7 -65 10 -77 10 -82 12 -99 57 -20 52 -77 113 -126 134 -49 21 -147 24
-190 6z m505 -379 c94 -14 184 -28 200 -30 17 -2 39 -6 50 -8 39 -8 140 -20
148 -18 4 1 10 -4 13 -11 3 -8 -19 -38 -49 -68 -103 -104 -179 -212 -240 -339
-37 -77 -87 -220 -87 -248 0 -29 -16 1 -58 108 -56 143 -51 129 -145 365 l-84
209 29 37 c17 21 35 36 42 34 6 -3 88 -16 181 -31z m3378 -29 c26 -25 54 -45
61 -45 19 0 23 -16 20 -80 -1 -30 -3 -126 -5 -212 -1 -87 -5 -161 -8 -165 -3
-5 -25 -21 -48 -37 l-43 -29 -182 71 c-101 39 -300 116 -443 172 -143 55 -269
104 -280 109 -11 4 -36 15 -55 23 l-35 15 75 18 c41 9 84 19 95 21 11 2 193
44 405 93 212 49 388 89 391 90 3 1 27 -19 52 -44z m-3793 -70 c4 2 80 -179
169 -402 159 -398 162 -407 143 -425 -23 -24 27 -36 -699 174 -24 6 -33 15
-33 31 0 12 -9 40 -19 63 l-18 40 69 95 c38 52 84 114 102 139 18 25 74 102
125 172 91 127 91 127 122 118 18 -5 35 -8 39 -5z m2895 -335 c88 -34 199 -77
248 -96 48 -19 129 -50 180 -70 392 -152 396 -153 395 -182 0 -15 1 -33 3 -41
4 -13 -57 -65 -281 -240 l-82 -64 -50 18 c-131 47 -270 -15 -317 -141 -33 -87
-14 -188 48 -258 29 -33 96 -65 151 -73 l54 -8 58 -125 c31 -69 73 -159 92
-200 135 -292 139 -300 130 -300 -2 0 -22 9 -44 20 -123 63 -324 106 -501 107
-175 2 -311 -23 -463 -84 -353 -140 -621 -433 -729 -793 -114 -381 -39 -789
202 -1105 68 -89 194 -209 280 -266 42 -28 78 -53 80 -55 2 -2 -101 -4 -231
-4 l-235 0 -11 24 c-30 66 -106 123 -182 135 l-35 6 -49 147 -50 148 22 27
c89 112 90 247 3 339 l-34 36 10 76 c27 211 -24 510 -114 676 -90 164 -153
249 -262 354 -299 286 -733 406 -1125 311 -44 -10 -81 -17 -84 -14 -3 2 4 17
14 32 11 15 21 33 24 38 3 6 28 47 55 93 28 46 55 91 60 101 84 145 321 531
325 531 4 0 14 -26 24 -57 54 -173 175 -366 310 -497 246 -237 530 -353 866
-354 237 -1 454 60 650 182 73 46 70 44 160 119 187 157 326 383 389 633 27
108 32 142 36 269 6 200 -33 382 -118 555 -28 58 -53 109 -55 114 -3 5 2 7 9
4 8 -3 86 -34 174 -68z m-2980 -577 c181 -52 331 -95 332 -96 1 -2 5 -18 8
-37 3 -19 15 -50 26 -70 l20 -36 -247 -413 c-136 -227 -254 -415 -261 -418 -8
-3 -16 -3 -19 0 -5 4 -25 78 -50 177 -2 8 -24 92 -48 185 -48 183 -115 436
-166 631 l-32 121 28 30 c22 24 35 30 54 26 14 -3 173 -48 355 -100z"/>
</g>
</svg>
